<svg width="192" height="20" viewBox="0 0 192 20" fill="none" xmlns="http://www.w3.org/2000/svg">
<path d="M12.5938 2.15244V3.99422H7.86489V19.5H5.6V3.99422H0.846222V2.15244H12.5938ZM18.1492 8.076C18.5474 7.29615 19.1115 6.69052 19.8416 6.25911C20.5883 5.8277 21.4926 5.612 22.5545 5.612V7.95155H21.9572C19.4185 7.95155 18.1492 9.32874 18.1492 12.0831V19.5H15.8843V5.86089H18.1492V8.076ZM24.8254 12.6307C24.8254 11.2369 25.1074 10.0173 25.6716 8.972C26.2357 7.91007 27.0073 7.08874 27.9862 6.508C28.9818 5.92726 30.0852 5.63689 31.2965 5.63689C32.4911 5.63689 33.5282 5.89407 34.4076 6.40844C35.287 6.92281 35.9424 7.56993 36.3738 8.34978V5.86089H38.6636V19.5H36.3738V16.9613C35.9258 17.7578 35.2538 18.4215 34.3578 18.9524C33.4784 19.4668 32.4496 19.724 31.2716 19.724C30.0603 19.724 28.9652 19.4253 27.9862 18.828C27.0073 18.2307 26.2357 17.3927 25.6716 16.3142C25.1074 15.2357 24.8254 14.0079 24.8254 12.6307ZM36.3738 12.6556C36.3738 11.6268 36.1664 10.7308 35.7516 9.96755C35.3368 9.2043 34.7726 8.62355 34.0591 8.22533C33.3622 7.81052 32.5907 7.60311 31.7445 7.60311C30.8982 7.60311 30.1267 7.80222 29.4298 8.20044C28.7329 8.59867 28.1771 9.17941 27.7622 9.94267C27.3474 10.7059 27.14 11.6019 27.14 12.6307C27.14 13.676 27.3474 14.5886 27.7622 15.3684C28.1771 16.1317 28.7329 16.7207 29.4298 17.1356C30.1267 17.5338 30.8982 17.7329 31.7445 17.7329C32.5907 17.7329 33.3622 17.5338 34.0591 17.1356C34.7726 16.7207 35.3368 16.1317 35.7516 15.3684C36.1664 14.5886 36.3738 13.6843 36.3738 12.6556ZM48.0709 17.4093L52.302 5.86089H54.7162L49.3651 19.5H46.7269L41.3758 5.86089H43.8149L48.0709 17.4093ZM69.892 12.1578C69.892 12.5892 69.8671 13.0455 69.8173 13.5267H58.916C58.9989 14.8707 59.4552 15.9243 60.2849 16.6876C61.1311 17.4342 62.1515 17.8076 63.3462 17.8076C64.3252 17.8076 65.1382 17.5836 65.7853 17.1356C66.449 16.671 66.9136 16.057 67.1791 15.2938H69.6182C69.2532 16.6046 68.5231 17.6748 67.428 18.5044C66.3329 19.3175 64.9723 19.724 63.3462 19.724C62.052 19.724 60.8905 19.4336 59.8618 18.8529C58.8496 18.2721 58.0532 17.4508 57.4724 16.3889C56.8917 15.3104 56.6013 14.0659 56.6013 12.6556C56.6013 11.2452 56.8834 10.009 57.4475 8.94711C58.0117 7.88518 58.7998 7.07215 59.812 6.508C60.8407 5.92726 62.0188 5.63689 63.3462 5.63689C64.6404 5.63689 65.7853 5.91896 66.7809 6.48311C67.7764 7.04726 68.5397 7.82711 69.0706 8.82267C69.6182 9.80163 69.892 10.9133 69.892 12.1578ZM67.5524 11.6849C67.5524 10.8221 67.3616 10.0837 66.98 9.46978C66.5983 8.83926 66.0757 8.36637 65.412 8.05111C64.7649 7.71926 64.0431 7.55333 63.2466 7.55333C62.1018 7.55333 61.1228 7.91837 60.3098 8.64844C59.5133 9.37852 59.057 10.3907 58.9409 11.6849H67.5524ZM75.649 1.08222V19.5H73.3841V1.08222H75.649Z" fill="black"/>
<path d="M80.4043 1.44097H87.8296C89.9199 1.44097 91.7307 1.63947 93.2619 2.03646C94.7932 2.42535 96.0611 3.00058 97.0657 3.76215C98.0704 4.52373 98.8157 5.45949 99.3018 6.56944C99.788 7.6794 100.031 8.95139 100.031 10.3854C100.031 11.6655 99.788 12.8605 99.3018 13.9705C98.8157 15.0723 98.0704 16.0365 97.0657 16.8628C96.0611 17.6811 94.7932 18.3252 93.2619 18.7951C91.7307 19.265 89.9199 19.5 87.8296 19.5H80.4043V1.44097ZM87.4286 16.8507C88.2388 16.8507 88.9679 16.7251 89.6161 16.474C90.2642 16.2228 90.8111 15.8339 91.2567 15.3073C91.7104 14.7807 92.0547 14.1123 92.2897 13.3021C92.5327 12.4838 92.6543 11.5075 92.6543 10.3733C92.6543 9.24711 92.5327 8.28704 92.2897 7.49306C92.0466 6.69907 91.6983 6.05093 91.2446 5.54861C90.7908 5.03819 90.2399 4.66956 89.5918 4.44271C88.9517 4.20775 88.2347 4.09028 87.4407 4.09028L87.4286 16.8507ZM106.78 5.45139C106.181 5.45139 105.662 5.38657 105.225 5.25694C104.795 5.12731 104.443 4.94907 104.167 4.72222C103.892 4.48727 103.689 4.21991 103.56 3.92014C103.43 3.61227 103.365 3.28009 103.365 2.92361C103.365 2.57523 103.43 2.24711 103.56 1.93924C103.689 1.63137 103.892 1.364 104.167 1.13715C104.443 0.902199 104.795 0.719907 105.225 0.590277C105.662 0.460648 106.181 0.395833 106.78 0.395833C107.388 0.395833 107.906 0.460648 108.336 0.590277C108.765 0.719907 109.117 0.902199 109.393 1.13715C109.677 1.364 109.883 1.63137 110.013 1.93924C110.142 2.24711 110.207 2.57523 110.207 2.92361C110.207 3.28009 110.142 3.61227 110.013 3.92014C109.883 4.21991 109.677 4.48727 109.393 4.72222C109.117 4.94907 108.765 5.12731 108.336 5.25694C107.906 5.38657 107.388 5.45139 106.78 5.45139ZM103.487 7.4566H110.086V19.5H103.487V7.4566ZM113.213 15.7083C113.213 15.125 113.343 14.5822 113.602 14.0799C113.861 13.5775 114.234 13.14 114.72 12.7674C115.206 12.3947 115.794 12.103 116.482 11.8924C117.171 11.6736 117.941 11.5642 118.791 11.5642C119.642 11.5642 120.436 11.6655 121.173 11.8681C121.919 12.0625 122.543 12.3137 123.045 12.6215V12.5243C123.045 11.9572 122.98 11.4751 122.85 11.0781C122.729 10.6811 122.538 10.3571 122.279 10.1059C122.02 9.85475 121.688 9.67245 121.283 9.55903C120.886 9.4456 120.416 9.38889 119.873 9.38889C119.379 9.38889 118.868 9.43345 118.342 9.52257C117.815 9.60359 117.329 9.72512 116.883 9.88715L115.996 8.24653C116.879 7.88194 117.791 7.62268 118.731 7.46875C119.679 7.30671 120.655 7.22569 121.659 7.22569C122.948 7.22569 124.086 7.35127 125.074 7.60243C126.071 7.84549 126.905 8.21412 127.578 8.70833C128.258 9.19444 128.773 9.81019 129.121 10.5556C129.47 11.2928 129.644 12.1597 129.644 13.1562V19.5H123.482L123.069 18.3333C122.826 18.5197 122.538 18.6979 122.206 18.8681C121.874 19.0382 121.51 19.1881 121.113 19.3177C120.716 19.4473 120.294 19.5486 119.849 19.6215C119.403 19.6944 118.937 19.7309 118.451 19.7309C117.657 19.7309 116.936 19.6296 116.288 19.4271C115.648 19.2164 115.101 18.9329 114.647 18.5764C114.194 18.2199 113.841 17.7986 113.59 17.3125C113.339 16.8183 113.213 16.2836 113.213 15.7083ZM120.019 15.4531C120.019 15.8906 120.161 16.2471 120.444 16.5226C120.728 16.7899 121.108 16.9236 121.586 16.9236C121.846 16.9236 122.101 16.8831 122.352 16.8021C122.603 16.713 122.834 16.5833 123.045 16.4132V14.3594C122.64 14.1163 122.194 13.9948 121.708 13.9948C121.157 13.9948 120.736 14.1325 120.444 14.408C120.161 14.6753 120.019 15.0237 120.019 15.4531ZM133.44 7.4566H139.261L139.844 9.2066C140.306 8.86632 140.74 8.57465 141.145 8.3316C141.558 8.08044 141.955 7.87384 142.336 7.71181C142.724 7.54167 143.097 7.42014 143.454 7.34722C143.818 7.2662 144.179 7.22569 144.535 7.22569C145.054 7.22569 145.52 7.29861 145.933 7.44444C146.354 7.59028 146.711 7.79687 147.002 8.06424C147.302 8.3316 147.529 8.65162 147.683 9.02431C147.845 9.38889 147.926 9.79398 147.926 10.2396C147.926 10.6852 147.829 11.0943 147.634 11.467C147.448 11.8397 147.172 12.1638 146.808 12.4392C146.443 12.7066 145.994 12.9172 145.459 13.0712C144.932 13.217 144.329 13.2899 143.648 13.2899L141.509 10.434C141.274 10.434 141.019 10.4826 140.744 10.5799C140.468 10.6771 140.233 10.831 140.039 11.0417V19.5H133.44V7.4566ZM153.618 5.45139C153.018 5.45139 152.5 5.38657 152.062 5.25694C151.633 5.12731 151.28 4.94907 151.005 4.72222C150.729 4.48727 150.527 4.21991 150.397 3.92014C150.268 3.61227 150.203 3.28009 150.203 2.92361C150.203 2.57523 150.268 2.24711 150.397 1.93924C150.527 1.63137 150.729 1.364 151.005 1.13715C151.28 0.902199 151.633 0.719907 152.062 0.590277C152.5 0.460648 153.018 0.395833 153.618 0.395833C154.225 0.395833 154.744 0.460648 155.173 0.590277C155.603 0.719907 155.955 0.902199 156.231 1.13715C156.514 1.364 156.721 1.63137 156.85 1.93924C156.98 2.24711 157.045 2.57523 157.045 2.92361C157.045 3.28009 156.98 3.61227 156.85 3.92014C156.721 4.21991 156.514 4.48727 156.231 4.72222C155.955 4.94907 155.603 5.12731 155.173 5.25694C154.744 5.38657 154.225 5.45139 153.618 5.45139ZM150.324 7.4566H156.923V19.5H150.324V7.4566ZM160.051 13.4115C160.051 12.7147 160.16 12.0787 160.379 11.5035C160.598 10.9282 160.897 10.4138 161.278 9.96007C161.667 9.49826 162.125 9.09722 162.651 8.75694C163.178 8.41667 163.749 8.1331 164.365 7.90625C164.981 7.6794 165.625 7.50926 166.297 7.39583C166.97 7.28241 167.65 7.22569 168.339 7.22569C169.246 7.22569 170.069 7.31887 170.806 7.50521C171.551 7.68345 172.212 7.93056 172.787 8.24653C173.37 8.5625 173.873 8.93113 174.294 9.35243C174.723 9.77373 175.076 10.2234 175.351 10.7014C175.635 11.1713 175.841 11.6574 175.971 12.1597C176.109 12.662 176.178 13.1522 176.178 13.6302L166.99 14.7361C167.168 15.6354 167.525 16.3322 168.059 16.8264C168.594 17.3206 169.344 17.5677 170.308 17.5677C170.834 17.5677 171.324 17.5029 171.778 17.3733C172.24 17.2436 172.601 17.0856 172.86 16.8993L173.832 18.6007C173.532 18.7546 173.204 18.9005 172.848 19.0382C172.499 19.1759 172.11 19.2975 171.681 19.4028C171.26 19.5 170.79 19.577 170.271 19.6337C169.761 19.6985 169.198 19.7309 168.582 19.7309C167.107 19.7309 165.835 19.5608 164.766 19.2205C163.697 18.8721 162.809 18.4103 162.105 17.8351C161.408 17.2517 160.889 16.5793 160.549 15.8177C160.217 15.0561 160.051 14.2541 160.051 13.4115ZM170.283 12.3906C170.283 11.3374 170.15 10.5718 169.882 10.0937C169.623 9.61574 169.234 9.37674 168.716 9.37674C168.448 9.37674 168.201 9.44155 167.974 9.57118C167.748 9.70081 167.553 9.90336 167.391 10.1788C167.229 10.4543 167.099 10.8108 167.002 11.2483C166.905 11.6777 166.852 12.2002 166.844 12.816L170.283 12.3906ZM179.439 16.3889C179.771 16.5671 180.091 16.7292 180.399 16.875C180.707 17.0208 181.015 17.1464 181.322 17.2517C181.63 17.349 181.938 17.4259 182.246 17.4826C182.562 17.5394 182.89 17.5677 183.23 17.5677C183.765 17.5677 184.15 17.5029 184.385 17.3733C184.62 17.2436 184.737 17.0735 184.737 16.8628C184.737 16.7332 184.697 16.6238 184.616 16.5347C184.543 16.4456 184.438 16.3686 184.3 16.3038C184.162 16.2309 184 16.1661 183.814 16.1094C183.627 16.0446 183.421 15.9797 183.194 15.9149L182.501 15.7083C181.821 15.5058 181.233 15.2708 180.739 15.0035C180.245 14.728 179.84 14.4201 179.524 14.0799C179.208 13.7396 178.973 13.375 178.819 12.9861C178.665 12.5891 178.588 12.1678 178.588 11.7222C178.588 11.147 178.718 10.592 178.977 10.0573C179.236 9.51447 179.637 9.03241 180.18 8.61111C180.723 8.18981 181.416 7.85359 182.258 7.60243C183.109 7.35127 184.118 7.22569 185.284 7.22569C185.722 7.22569 186.175 7.25405 186.645 7.31076C187.123 7.35937 187.585 7.42419 188.031 7.50521C188.476 7.58623 188.894 7.6794 189.283 7.78472C189.671 7.88194 190 7.98322 190.267 8.08854L189.197 10.0451C189.019 9.94792 188.809 9.86285 188.565 9.78993C188.331 9.70891 188.087 9.64005 187.836 9.58333C187.585 9.51852 187.342 9.46991 187.107 9.4375C186.88 9.40509 186.686 9.38889 186.524 9.38889C186.054 9.38889 185.718 9.4537 185.515 9.58333C185.313 9.71296 185.211 9.87095 185.211 10.0573C185.211 10.1302 185.232 10.2072 185.272 10.2882C185.313 10.3692 185.394 10.4543 185.515 10.5434C185.637 10.6325 185.807 10.7257 186.026 10.8229C186.244 10.9201 186.532 11.0214 186.888 11.1267L187.569 11.3333C188.322 11.5602 188.946 11.8154 189.44 12.099C189.943 12.3825 190.344 12.6904 190.644 13.0226C190.951 13.3466 191.166 13.691 191.288 14.0556C191.417 14.4201 191.482 14.7928 191.482 15.1736C191.482 15.7569 191.34 16.3241 191.057 16.875C190.773 17.4259 190.32 17.912 189.696 18.3333C189.08 18.7546 188.282 19.0949 187.302 19.3542C186.321 19.6053 185.134 19.7309 183.741 19.7309C183.141 19.7309 182.59 19.7066 182.088 19.658C181.586 19.6094 181.112 19.5365 180.666 19.4392C180.221 19.342 179.791 19.2245 179.378 19.0868C178.973 18.941 178.572 18.7789 178.175 18.6007L179.439 16.3889Z" fill="url(#paint0_linear_22_23)"/>
<defs>
<linearGradient id="paint0_linear_22_23" x1="-19.786" y1="-10.5" x2="2.33086" y2="83.4489" gradientUnits="userSpaceOnUse">
<stop stop-color="#6318DD"/>
<stop offset="1" stop-color="#D03BE8"/>
</linearGradient>
</defs>
</svg>
